<svg width="79" height="79" viewBox="0 0 79 79" fill="none" xmlns="http://www.w3.org/2000/svg">
<g clip-path="url(#clip0_420_1975)">
<path fill-rule="evenodd" clip-rule="evenodd" d="M22.7631 0C10.0141 0 -0.321533 10.3356 -0.321533 23.0847V79.5896H56.1834C68.9339 79.5896 79.2681 69.254 79.2681 56.5035V0H22.7631Z" fill="#00853F"/>
<path d="M17.9773 34.6712C16.6012 34.6712 15.5268 35.2347 14.7555 36.3632C13.9842 37.4917 13.5986 39.0456 13.5986 41.0279C13.5986 45.1491 15.1653 47.2082 18.3003 47.2082C19.2481 47.2082 20.1659 47.0759 21.0539 46.8126C21.431 46.7002 21.8096 46.5793 22.1881 46.4483C22.9451 46.1865 23.7349 46.7514 23.7349 47.5526V50.7531C21.9476 51.5443 19.9269 51.9399 17.6713 51.9399C14.4396 51.9399 11.9621 51.0021 10.2388 49.1279C8.51544 47.2538 7.65308 44.5429 7.65308 40.9995C7.65308 38.7824 8.07003 36.8342 8.90536 35.155C9.74069 33.4758 10.9417 32.1837 12.5085 31.2815C14.0753 30.3779 15.9181 29.9268 18.0371 29.9268C20.3509 29.9268 22.5623 30.4305 24.6727 31.4352L23.3407 34.859C23.1031 35.4695 22.4129 35.7584 21.8039 35.5136C21.3784 35.3429 20.9529 35.1892 20.5274 35.0526C19.7362 34.7993 18.8866 34.6712 17.9787 34.6712H17.9773Z" fill="#FEFEFE"/>
<path d="M32.2163 51.6466H26.4886V37.5328H31.0466C31.6927 37.5328 32.2163 38.0565 32.2163 38.7026V51.648V51.6466ZM30.614 35.3655C31.576 35.3655 32.3572 34.5857 32.3572 33.6223V29.3574H28.0924C27.1304 29.3574 26.3491 30.1373 26.3491 31.1007V35.3655H30.614Z" fill="#FEFEFE"/>
<path d="M33.5183 51.6465L40.0643 31.7523C40.3802 30.7932 41.2753 30.1443 42.2857 30.1443H48.3123L55.2995 51.6465H49.8378C49.3099 51.6465 48.846 51.2922 48.7093 50.7813L47.8584 47.6321H40.9011L39.8466 51.6451H33.5197L33.5183 51.6465ZM46.6559 42.8877C45.7679 39.5293 45.1944 37.278 44.9354 36.1353C44.6764 34.9926 44.5028 34.1729 44.416 33.6749C44.3192 34.2114 44.1157 35.1008 43.8084 36.3402C43.501 37.5811 43.2391 38.5915 43.0243 39.3727L42.1021 42.8877H46.6573H46.6559Z" fill="#FEFEFE"/>
<path d="M56.5022 51.6464V30.2324H61.1186C61.7646 30.2324 62.2883 30.7561 62.2883 31.4022V46.9746H69.3651C70.0112 46.9746 70.5349 47.4983 70.5349 48.1443V51.6479H56.5036L56.5022 51.6464Z" fill="#FEFEFE"/>
</g>
<defs>
<clipPath id="clip0_420_1975">
<rect width="79" height="79" fill="white"/>
</clipPath>
</defs>
</svg>
